<svg xmlns="http://www.w3.org/2000/svg" viewBox="0 0 134.23 30.98"><defs><style>.cls-1{fill:#0689c3;}.cls-2{fill:#05242f;}</style></defs><title>Asset 4</title><g id="Layer_2" data-name="Layer 2"><g id="Layer_1-2" data-name="Layer 1"><path class="cls-1" d="M.06.25H2.55V1.82h0A3.09,3.09,0,0,1,3.77.48,3.25,3.25,0,0,1,5.53,0,2.28,2.28,0,0,1,6,0a4,4,0,0,1,.44.11v2.4c-.2-.06-.41-.1-.61-.14a4,4,0,0,0-.59-.05,2.71,2.71,0,0,0-1.4.32A2.66,2.66,0,0,0,3,3.42a2.44,2.44,0,0,0-.37.83,3.14,3.14,0,0,0-.09.62v5.32H.06Z"/><path class="cls-1" d="M9.74,6.09a2.49,2.49,0,0,0,.87,1.74,2.66,2.66,0,0,0,1.8.62A3,3,0,0,0,14,8.07a4.63,4.63,0,0,0,1.11-1l1.78,1.34A5.15,5.15,0,0,1,14.92,10a5.81,5.81,0,0,1-2.26.45,6,6,0,0,1-2.12-.37A5,5,0,0,1,8.83,9,4.76,4.76,0,0,1,7.68,7.36a5.11,5.11,0,0,1-.43-2.14,5.11,5.11,0,0,1,.43-2.14A4.85,4.85,0,0,1,8.83,1.43,5,5,0,0,1,10.54.37,6,6,0,0,1,12.66,0a4.82,4.82,0,0,1,1.89.36,3.89,3.89,0,0,1,1.47,1A4.79,4.79,0,0,1,17,3.1a7.39,7.39,0,0,1,.34,2.31v.68Zm5.09-1.86a2.32,2.32,0,0,0-.68-1.73,2.57,2.57,0,0,0-1.84-.64,2.39,2.39,0,0,0-1.77.65,2.78,2.78,0,0,0-.8,1.72Z"/><path class="cls-1" d="M19.54.25H21.9V1.8h0A3.29,3.29,0,0,1,23,.55,3.2,3.2,0,0,1,25,0a3,3,0,0,1,3.11,1.84A3.48,3.48,0,0,1,29.44.45,3.89,3.89,0,0,1,31.36,0,3.81,3.81,0,0,1,33,.33a2.93,2.93,0,0,1,1.11.91,3.75,3.75,0,0,1,.61,1.36A6.83,6.83,0,0,1,35,4.27v5.92H32.46V4.56a5,5,0,0,0-.08-.88,2.17,2.17,0,0,0-.29-.75,1.62,1.62,0,0,0-.56-.51,2.36,2.36,0,0,0-1.9,0A1.84,1.84,0,0,0,29,3a2.27,2.27,0,0,0-.37.82,3.8,3.8,0,0,0-.11.95v5.38H26V4.27a2.5,2.5,0,0,0-.39-1.48,1.5,1.5,0,0,0-1.31-.55,2.55,2.55,0,0,0-1.05.2,2.14,2.14,0,0,0-.7.56,2.2,2.2,0,0,0-.4.81,3.35,3.35,0,0,0-.13.95v5.43H19.54Z"/><path class="cls-2" d="M43.85,10.09h1.82v2.16h.06a4.53,4.53,0,0,1,1.05-1.13A6.12,6.12,0,0,1,49.42,9.9a7.1,7.1,0,0,1,1.34-.14,7.27,7.27,0,0,1,2.77.51A6.46,6.46,0,0,1,55.7,11.7a6.35,6.35,0,0,1,1.42,2.15,7.43,7.43,0,0,1,0,5.41,6.36,6.36,0,0,1-3.59,3.58,7.27,7.27,0,0,1-2.77.51,6.36,6.36,0,0,1-1.34-.14,6.08,6.08,0,0,1-1.37-.44A6.43,6.43,0,0,1,46.78,22a4.53,4.53,0,0,1-1.05-1.13h-.06V31H43.85Zm11.8,6.47a5.83,5.83,0,0,0-.35-2,5,5,0,0,0-1-1.63,4.59,4.59,0,0,0-1.53-1.09,4.9,4.9,0,0,0-2-.4,5.14,5.14,0,0,0-3.7,1.49A5,5,0,0,0,46,14.54a5.23,5.23,0,0,0-.39,2,5.14,5.14,0,0,0,.39,2,5,5,0,0,0,2.71,2.72,5.13,5.13,0,0,0,2.07.4,4.9,4.9,0,0,0,2-.4,4.45,4.45,0,0,0,1.53-1.09,4.86,4.86,0,0,0,1-1.63A5.74,5.74,0,0,0,55.65,16.56Z"/><path class="cls-2" d="M63.24,17.05a5.61,5.61,0,0,0,.47,1.83,5,5,0,0,0,1,1.48,4.91,4.91,0,0,0,1.47,1,4.43,4.43,0,0,0,1.79.35A4.62,4.62,0,0,0,70.52,21a5.06,5.06,0,0,0,1.62-1.56l1.4,1.16A7.09,7.09,0,0,1,71,22.72a7.2,7.2,0,0,1-3,.63,6.89,6.89,0,0,1-2.66-.51,6.23,6.23,0,0,1-2.12-1.42,6.74,6.74,0,0,1-1.39-2.16,7,7,0,0,1-.51-2.7,7.07,7.07,0,0,1,.5-2.71,6.37,6.37,0,0,1,6-4.09,6.29,6.29,0,0,1,2.62.53,5.91,5.91,0,0,1,2,1.39,6.06,6.06,0,0,1,1.2,2.05,7.33,7.33,0,0,1,.41,2.5v.82ZM72,15.56a3.89,3.89,0,0,0-4.2-4.14,4.66,4.66,0,0,0-1.72.34,5.07,5.07,0,0,0-1.45.93,4.76,4.76,0,0,0-1,1.33,3.36,3.36,0,0,0-.37,1.54Z"/><path class="cls-2" d="M91.64,16.56a7,7,0,0,1-.51,2.7,6.52,6.52,0,0,1-1.43,2.16,6.39,6.39,0,0,1-2.16,1.42,7.36,7.36,0,0,1-2.78.51A7.24,7.24,0,0,1,82,22.84a6.36,6.36,0,0,1-3.59-3.58,7.43,7.43,0,0,1,0-5.41,6.35,6.35,0,0,1,1.42-2.15A6.46,6.46,0,0,1,82,10.27a7.24,7.24,0,0,1,2.75-.51,7.36,7.36,0,0,1,2.78.51,6.52,6.52,0,0,1,3.59,3.58A7.07,7.07,0,0,1,91.64,16.56Zm-2,0a5.83,5.83,0,0,0-.35-2,4.8,4.8,0,0,0-1-1.63,4.59,4.59,0,0,0-1.53-1.09,5.35,5.35,0,0,0-4.06,0,4.45,4.45,0,0,0-1.52,1.09,4.94,4.94,0,0,0-1,1.63,5.83,5.83,0,0,0-.34,2,5.73,5.73,0,0,0,.34,2,4.84,4.84,0,0,0,1,1.63,4.32,4.32,0,0,0,1.52,1.09,5.35,5.35,0,0,0,4.06,0,4.45,4.45,0,0,0,1.53-1.09,4.7,4.7,0,0,0,1-1.63A5.74,5.74,0,0,0,89.65,16.56Z"/><path class="cls-2" d="M96.19,10.09H98v2.16h0a4.93,4.93,0,0,1,1.05-1.13,6.3,6.3,0,0,1,1.27-.78,6.08,6.08,0,0,1,1.37-.44,7.1,7.1,0,0,1,1.34-.14,7.27,7.27,0,0,1,2.77.51A6.46,6.46,0,0,1,108,11.7a6.35,6.35,0,0,1,1.42,2.15,6.89,6.89,0,0,1,.52,2.71,6.84,6.84,0,0,1-.52,2.7,6.36,6.36,0,0,1-3.59,3.58,7.27,7.27,0,0,1-2.77.51,6.36,6.36,0,0,1-1.34-.14,6.08,6.08,0,0,1-1.37-.44A6.73,6.73,0,0,1,99.12,22a4.93,4.93,0,0,1-1.05-1.13h0V31H96.19ZM108,16.56a5.83,5.83,0,0,0-.35-2,5,5,0,0,0-1-1.63,4.59,4.59,0,0,0-1.53-1.09,4.9,4.9,0,0,0-2-.4,5.14,5.14,0,0,0-3.7,1.49,5,5,0,0,0-1.08,1.63,5.23,5.23,0,0,0-.39,2,5.14,5.14,0,0,0,.39,2A5,5,0,0,0,101,21.29a5.13,5.13,0,0,0,2.07.4,4.9,4.9,0,0,0,2-.4,4.45,4.45,0,0,0,1.53-1.09,4.86,4.86,0,0,0,1-1.63A5.74,5.74,0,0,0,108,16.56Z"/><path class="cls-2" d="M116.55,23h-1.82V2.14h1.82Z"/><path class="cls-2" d="M123.45,17.05a5.87,5.87,0,0,0,.47,1.83,4.82,4.82,0,0,0,2.49,2.46,4.43,4.43,0,0,0,1.79.35,4.62,4.62,0,0,0,2.53-.67,5.06,5.06,0,0,0,1.62-1.56l1.41,1.16a6.71,6.71,0,0,1-5.56,2.73,6.89,6.89,0,0,1-2.66-.51,6.18,6.18,0,0,1-2.11-1.42,6.76,6.76,0,0,1-1.4-2.16,7,7,0,0,1-.51-2.7,7.26,7.26,0,0,1,.5-2.71,6.37,6.37,0,0,1,6-4.09,6.25,6.25,0,0,1,2.62.53,5.69,5.69,0,0,1,3.15,3.44,7.33,7.33,0,0,1,.42,2.5v.82Zm8.79-1.49a4.11,4.11,0,0,0-1.11-3A4.05,4.05,0,0,0,128,11.42a4.57,4.57,0,0,0-1.71.34,4.81,4.81,0,0,0-1.45.93,4.61,4.61,0,0,0-1,1.33,3.36,3.36,0,0,0-.37,1.54Z"/><rect class="cls-1" x="15.69" y="-1.9" width="3.61" height="34.99" transform="translate(1.9 33.09) rotate(-90)"/></g></g></svg>